HIERARCHY
ROOT hip
{
  OFFSET 0 0 0
  CHANNELS 6 Xposition Yposition Zposition Zrotation Yrotation Xrotation
  JOINT abdomen
  {
    OFFSET 0 20.6881 -0.73152
    CHANNELS 3 Zrotation Xrotation Yrotation
    JOINT chest
    {
      OFFSET 0 11.7043 -0.48768
      CHANNELS 3 Zrotation Xrotation Yrotation
      JOINT neck
      {
        OFFSET 0 22.1894 -2.19456
        CHANNELS 3 Zrotation Xrotation Yrotation
        JOINT head
        {
          OFFSET -0.24384 7.07133 1.2192
          CHANNELS 3 Zrotation Xrotation Yrotation
          JOINT leftEye
          {
            OFFSET 4.14528 8.04674 8.04672
            CHANNELS 3 Zrotation Xrotation Yrotation
            End Site
            {
              OFFSET 1 0 0
            }
          }
          JOINT rightEye
          {
            OFFSET -3.6576 8.04674 8.04672
            CHANNELS 3 Zrotation Xrotation Yrotation
            End Site
            {
              OFFSET 1 0 0
            }
          }
        }
      }
      JOINT rCollar
      {
        OFFSET -2.68224 19.2634 -4.8768
        CHANNELS 3 Zrotation Xrotation Yrotation
        JOINT rShldr
        {
          OFFSET -8.77824 -1.95073 1.46304
          CHANNELS 3 Zrotation Xrotation Yrotation
          JOINT rForeArm
          {
            OFFSET -28.1742 -1.7115 0.48768
            CHANNELS 3 Zrotation Xrotation Yrotation
            JOINT rHand
            {
              OFFSET -22.5879 0.773209 7.07136
              CHANNELS 3 Zrotation Xrotation Yrotation
              JOINT rThumb1
              {
                OFFSET -1.2192 -0.487915 3.41376
                CHANNELS 3 Zrotation Xrotation Yrotation
                JOINT rThumb2
                {
                  OFFSET -3.37035 -0.52449 3.41376
                  CHANNELS 3 Zrotation Xrotation Yrotation
                  End Site
                  {
                    OFFSET -1.78271 -1.18214 1.43049
                  }
                }
              }
              JOINT rIndex1
              {
                OFFSET -7.75947 0.938293 5.60832
                CHANNELS 3 Zrotation Xrotation Yrotation
                JOINT rIndex2
                {
                  OFFSET -2.54057 -0.884171 1.56538
                  CHANNELS 3 Zrotation Xrotation Yrotation
                  End Site
                  {
                    OFFSET -1.62519 -0.234802 1.16502
                  }
                }
              }
              JOINT rMid1
              {
                OFFSET -8.24714 1.18213 3.41376
                CHANNELS 3 Zrotation Xrotation Yrotation
                JOINT rMid2
                {
                  OFFSET -3.10165 -0.590103 1.0647
                  CHANNELS 3 Zrotation Xrotation Yrotation
                  End Site
                  {
                    OFFSET -2.48547 -0.328903 0.83742
                  }
                }
              }
              JOINT rRing1
              {
                OFFSET -8.82822 0.546677 1.51678
                CHANNELS 3 Zrotation Xrotation Yrotation
                JOINT rRing2
                {
                  OFFSET -2.60934 -0.819778 -0.0198488
                  CHANNELS 3 Zrotation Xrotation Yrotation
                  End Site
                  {
                    OFFSET -2.33842 -0.294052 0.168128
                  }
                }
              }
              JOINT rPinky1
              {
                OFFSET -8.27202 -0.0477905 -0.4584
                CHANNELS 3 Zrotation Xrotation Yrotation
                JOINT rPinky2
                {
                  OFFSET -1.82734 -0.647385 -0.700984
                  CHANNELS 3 Zrotation Xrotation Yrotation
                  End Site
                  {
                    OFFSET -1.69225 -0.51767 -0.607171
                  }
                }
              }
            }
          }
        }
      }
      JOINT lCollar
      {
        OFFSET 2.68224 19.2634 -4.8768
        CHANNELS 3 Zrotation Xrotation Yrotation
        JOINT lShldr
        {
          OFFSET 8.77824 -1.95073 1.46304
          CHANNELS 3 Zrotation Xrotation Yrotation
          JOINT lForeArm
          {
            OFFSET 28.1742 -1.7115 0.48768
            CHANNELS 3 Zrotation Xrotation Yrotation
            JOINT lHand
            {
              OFFSET 22.5879 0.773209 7.07136
              CHANNELS 3 Zrotation Xrotation Yrotation
              JOINT lThumb1
              {
                OFFSET 1.2192 -0.487915 3.41376
                CHANNELS 3 Zrotation Xrotation Yrotation
                JOINT lThumb2
                {
                  OFFSET 3.37035 -0.52449 3.41376
                  CHANNELS 3 Zrotation Xrotation Yrotation
                  End Site
                  {
                    OFFSET 1.78271 -1.18214 1.43049
                  }
                }
              }
              JOINT lIndex1
              {
                OFFSET 7.75947 0.938293 5.60832
                CHANNELS 3 Zrotation Xrotation Yrotation
                JOINT lIndex2
                {
                  OFFSET 2.54057 -0.884171 1.56538
                  CHANNELS 3 Zrotation Xrotation Yrotation
                  End Site
                  {
                    OFFSET 1.62519 -0.234802 1.16502
                  }
                }
              }
              JOINT lMid1
              {
                OFFSET 8.24714 1.18213 3.41376
                CHANNELS 3 Zrotation Xrotation Yrotation
                JOINT lMid2
                {
                  OFFSET 3.10165 -0.590103 1.0647
                  CHANNELS 3 Zrotation Xrotation Yrotation
                  End Site
                  {
                    OFFSET 2.48547 -0.328903 0.83742
                  }
                }
              }
              JOINT lRing1
              {
                OFFSET 8.82822 0.546677 1.51678
                CHANNELS 3 Zrotation Xrotation Yrotation
                JOINT lRing2
                {
                  OFFSET 2.60934 -0.819778 -0.0198488
                  CHANNELS 3 Zrotation Xrotation Yrotation
                  End Site
                  {
                    OFFSET 2.33842 -0.294052 0.168128
                  }
                }
              }
              JOINT lPinky1
              {
                OFFSET 8.27202 -0.0477905 -0.4584
                CHANNELS 3 Zrotation Xrotation Yrotation
                JOINT lPinky2
                {
                  OFFSET 1.82734 -0.647385 -0.700984
                  CHANNELS 3 Zrotation Xrotation Yrotation
                  End Site
                  {
                    OFFSET 1.69225 -0.51767 -0.607171
                  }
                }
              }
            }
          }
        }
      }
    }
  }
  JOINT rButtock
  {
    OFFSET -8.77824 4.35084 1.2192
    CHANNELS 3 Zrotation Xrotation Yrotation
    JOINT rThigh
    {
      OFFSET 0 -1.70687 -2.19456
      CHANNELS 3 Zrotation Xrotation Yrotation
      JOINT rShin
      {
        OFFSET 0 -36.8199 0.73152
        CHANNELS 3 Zrotation Xrotation Yrotation
        JOINT rFoot
        {
          OFFSET 0.73152 -45.1104 -5.12064
          CHANNELS 3 Zrotation Xrotation Yrotation
          End Site
          {
            OFFSET -1.1221 -3.69964 12.103
          }
        }
      }
    }
  }
  JOINT lButtock
  {
    OFFSET 8.77824 4.35084 1.2192
    CHANNELS 3 Zrotation Xrotation Yrotation
    JOINT lThigh
    {
      OFFSET 0 -1.70687 -2.19456
      CHANNELS 3 Zrotation Xrotation Yrotation
      JOINT lShin
      {
        OFFSET 0 -36.8199 0.73152
        CHANNELS 3 Zrotation Xrotation Yrotation
        JOINT lFoot
        {
          OFFSET -0.73152 -45.1104 -5.12064
          CHANNELS 3 Zrotation Xrotation Yrotation
          End Site
          {
            OFFSET 1.1221 -3.69964 12.103
          }
        }
      }
    }
  }
}
MOTION
Frames:	6
Frame Time:	0.00833333
52.5784 85.5069 -206.273 0.0 0.0 0.0 2.23596 -0.000458413 0.0604513 0.615891 0.00897675 0.106607 2.74933e-14 -7.95139e-16 3.97569e-16 8.21415e-14 9.54166e-15 1.01411e-15 -0.0 0.0 0.0 -0.0 0.0 0.0 1.37148e-14 -7.37677e-17 2.98177e-16 2.89914e-13 -1.61513e-15 5.36719e-15 4.95317e-12 -1.53323e-12 4.13472e-14 5.66369e-11 1.20558e-12 8.23764e-13 1.336e-10 -7.12024e-13 1.87017e-12 2.30717e-10 -1.22769e-12 3.21634e-12 1.33608e-10 -7.10059e-13 1.85744e-12 7.73091 5.47488 0.417314 1.336e-10 -7.12047e-13 1.87017e-12 2.90554 0.965183 0.102902 1.33612e-10 -7.1145e-13 1.86699e-12 10.2786 0.731801 0.0259123 1.33587e-10 -7.09661e-13 1.87653e-12 2.22167 -0.733487 -0.20892 1.3619e-14 -7.51266e-17 0.0 2.85148e-13 -1.31695e-15 3.97569e-15 4.94452e-12 1.43224e-12 1.27222e-14 5.66288e-11 -1.76305e-12 8.5875e-13 1.33573e-10 -7.20992e-13 1.86699e-12 2.30676e-10 -1.24678e-12 3.2227e-12 1.33571e-10 -7.20396e-13 1.87335e-12 -7.73091 5.47488 -0.417314 1.33572e-10 -7.20793e-13 1.86699e-12 -2.90554 0.965183 -0.102902 1.33563e-10 -7.20495e-13 1.86699e-12 -10.2786 0.731801 -0.0259123 1.33581e-10 -7.17215e-13 1.86381e-12 -2.22167 -0.733487 0.20892 -2.03217e-16 0.0 -3.88251e-19 2.20812 -7.80167 -0.224 0.00524174 8.55963 0.136052 -0.54521 -0.766553 0.0458495 2.03217e-16 0.0 3.88251e-19 1.18449 -1.92859 -0.00255039 0.00908685 -2.07858 0.0749442 0.513168 3.99847 -0.140485
52.9508 84.9958 -207.675 0.3839 0.9492 4.4113 1.68222 -2.53524 0.602481 0.275745 0.759985 0.280351 -0.595563 4.5774 -1.13016 2.66471 -6.86886 -1.69632 -0.0 0.0 0.0 -0.0 0.0 0.0 2.76631e-15 -3.336e-14 -1.08609e-14 22.0718 8.29549 -2.19909 -4.31756 -1.98157 6.72206 0.00220964 1.05254 0.147838 1.46411e-10 -2.98311e-10 1.58412e-10 2.54127e-10 -5.16727e-10 2.73241e-10 1.46419e-10 -2.98311e-10 1.58397e-10 7.73091 5.47488 0.417314 1.4641e-10 -2.98313e-10 1.5841e-10 2.90554 0.965183 0.102902 1.46421e-10 -2.98314e-10 1.58409e-10 10.2786 0.731801 0.0259123 1.464e-10 -2.98311e-10 1.58416e-10 2.22167 -0.733487 -0.20892 2.66783e-15 -3.33597e-14 -1.11614e-14 -20.9812 12.181 -0.3489 3.14572 -1.26671 -5.07579 -0.0110666 -2.33569 0.327278 4.1221e-10 -5.63481e-11 -2.35508e-10 7.12645e-10 -9.69989e-11 -4.04776e-10 4.12209e-10 -5.63459e-11 -2.35499e-10 -7.73091 5.47488 -0.417314 4.12211e-10 -5.63467e-11 -2.35509e-10 -2.90554 0.965183 -0.102902 4.12201e-10 -5.63457e-11 -2.35508e-10 -10.2786 0.731801 -0.0259123 4.12216e-10 -5.6344e-11 -2.35512e-10 -2.22167 -0.733487 0.20892 -2.03217e-16 0.0 -3.88251e-19 2.41464 -6.69505 2.20881 0.00798529 8.85576 0.152361 -1.02152 -6.03345 -5.35141 2.03217e-16 0.0 3.88251e-19 2.16688 -1.84838 -0.45446 0.00634152 -1.35986 0.0334727 0.431757 2.31052 -1.40049
52.9724 84.9924 -207.674 0.4684 0.9854 4.4048 1.14738 -5.21296 1.17814 -0.0900718 1.55398 0.463918 -1.02235 9.39936 -2.33737 5.03459 -14.0896 -3.54851 -0.0 0.0 0.0 -0.0 0.0 0.0 -9.2614e-15 -7.16211e-14 -2.33386e-14 46.13 17.0316 -4.68223 -8.38219 -3.98703 13.8573 -0.00137307 2.14866 0.301967 1.60134e-10 -6.29934e-10 3.40535e-10 2.79299e-10 -1.09119e-09 5.87452e-10 1.60142e-10 -6.29935e-10 3.40518e-10 7.73091 5.47488 0.417314 1.60133e-10 -6.29937e-10 3.40531e-10 2.90554 0.965183 0.102902 1.60143e-10 -6.2994e-10 3.40532e-10 10.2786 0.731801 0.0259123 1.60127e-10 -6.29937e-10 3.40537e-10 2.22167 -0.733487 -0.20892 -9.36286e-15 -7.1619e-14 -2.3643e-14 -42.9833 25.0495 -0.766776 6.2312 -2.57444 -10.4544 0.00632462 -4.79385 0.673563 7.31412e-10 -1.13117e-10 -5.08208e-10 1.26482e-09 -1.94588e-10 -8.73547e-10 7.31412e-10 -1.13113e-10 -5.08196e-10 -7.73091 5.47488 -0.417314 7.31414e-10 -1.13114e-10 -5.0821e-10 -2.90554 0.965183 -0.102902 7.31404e-10 -1.13112e-10 -5.08208e-10 -10.2786 0.731801 -0.0259123 7.31415e-10 -1.13112e-10 -5.08213e-10 -2.22167 -0.733487 0.20892 -2.03217e-16 0.0 -3.88251e-19 2.53193 -5.51604 4.77005 0.0106971 9.16836 0.16965 -2.617 -11.4382 -11.2214 2.03217e-16 0.0 3.88251e-19 3.20852 -1.76346 -0.931382 0.00449099 -0.600119 -0.010207 0.265047 0.528112 -2.73202
52.9892 84.9933 -207.672 0.5262 1.0317 4.3948 0.719701 -7.60191 1.69972 -0.418222 2.26189 0.628254 -1.23179 13.7105 -3.47892 6.70544 -20.5318 -5.39613 -0.0 0.0 0.0 -0.0 0.0 0.0 -1.91308e-14 -9.99326e-14 -3.31792e-14 68.2846 24.7322 -7.19083 -11.5842 -5.61809 20.2556 -0.00968707 3.15755 0.444115 1.72032e-10 -8.9351e-10 4.71495e-10 3.00948e-10 -1.54773e-09 8.13289e-10 1.7204e-10 -8.93512e-10 4.71476e-10 7.73091 5.47488 0.417314 1.72029e-10 -8.93515e-10 4.71489e-10 2.90554 0.965183 0.102902 1.72039e-10 -8.93518e-10 4.71492e-10 10.2786 0.731801 0.0259123 1.72027e-10 -8.93515e-10 4.71495e-10 2.22167 -0.733487 -0.20892 -1.92344e-14 -9.9929e-14 -3.34843e-14 -62.4061 36.5369 -1.27343 8.7715 -3.68103 -15.2559 0.0473585 -7.00616 0.988399 9.69484e-10 -1.67602e-10 -7.10257e-10 1.67658e-09 -2.88503e-10 -1.22077e-09 9.69484e-10 -1.67597e-10 -7.10243e-10 -7.73091 5.47488 -0.417314 9.69487e-10 -1.67598e-10 -7.1026e-10 -2.90554 0.965183 -0.102902 9.69477e-10 -1.67596e-10 -7.10257e-10 -10.2786 0.731801 -0.0259123 9.69484e-10 -1.67598e-10 -7.10263e-10 -2.22167 -0.733487 0.20892 -2.03217e-16 0.0 -3.88251e-19 2.54499 -4.46266 7.04654 0.0129596 9.44802 0.185071 -5.00797 -15.9787 -16.7206 2.03217e-16 0.0 3.88251e-19 4.13548 -1.68767 -1.35816 0.00397113 0.0775837 -0.0494 0.0464504 -1.06086 -3.91843
52.9856 84.9934 -207.671 0.5143 1.0196 4.3947 0.457743 -9.27161 2.0737 -0.642575 2.75471 0.744132 -1.28235 16.7641 -4.37539 7.52363 -25.0929 -6.95581 -0.0 0.0 0.0 -0.0 0.0 0.0 -2.36043e-14 -1.0337e-13 -3.64273e-14 84.1625 29.9902 -9.19869 -13.5866 -6.62564 24.726 -0.0191588 3.94843 0.555805 1.79363e-10 -9.86968e-10 4.74548e-10 3.13786e-10 -1.70945e-09 8.18193e-10 1.79371e-10 -9.86971e-10 4.74529e-10 7.73091 5.47488 0.417314 1.7936e-10 -9.86973e-10 4.74542e-10 2.90554 0.965183 0.102902 1.79369e-10 -9.86977e-10 4.74546e-10 10.2786 0.731801 0.0259123 1.7936e-10 -9.86974e-10 4.74548e-10 2.22167 -0.733487 -0.20892 -2.37081e-14 -1.03366e-13 -3.67255e-14 -75.7581 44.5764 -1.80947 10.4177 -4.39911 -18.5871 0.0916788 -8.60469 1.21858 1.00473e-09 -2.16379e-10 -7.35681e-10 1.7373e-09 -3.73232e-10 -1.26414e-09 1.00473e-09 -2.16373e-10 -7.35665e-10 -7.73091 5.47488 -0.417314 1.00473e-09 -2.16375e-10 -7.35685e-10 -2.90554 0.965183 -0.102902 1.00472e-09 -2.16373e-10 -7.35681e-10 -10.2786 0.731801 -0.0259123 1.00473e-09 -2.16375e-10 -7.35688e-10 -2.22167 -0.733487 0.20892 -2.03217e-16 0.0 -3.88251e-19 2.49677 -3.73102 8.62813 0.0144609 9.6453 0.195756 -7.22539 -18.9151 -20.7528 2.03217e-16 0.0 3.88251e-19 4.77305 -1.63489 -1.65966 0.00459285 0.550187 -0.0774063 -0.144916 -2.17185 -4.74024
52.9927 84.9931 -207.671 0.5449 1.0255 4.3906 0.382668 -9.94004 2.24496 -0.717826 2.9499 0.795494 -1.28519 18.08 -4.87452 7.59613 -27.0862 -7.90859 -0.0 0.0 0.0 -0.0 0.0 0.0 -1.97747e-14 -6.26574e-14 -2.88071e-14 90.4363 31.9213 -10.0581 -14.3073 -6.97432 26.4471 -0.0257604 4.45597 0.627587 1.95926e-10 -8.08331e-10 2.53121e-10 3.41011e-10 -1.39953e-09 4.35204e-10 1.95933e-10 -8.08335e-10 2.53104e-10 7.73091 5.47488 0.417314 1.95924e-10 -8.08336e-10 2.53116e-10 2.90554 0.965183 0.102902 1.95931e-10 -8.0834e-10 2.5312e-10 10.2786 0.731801 0.0259123 1.95924e-10 -8.08336e-10 2.53124e-10 2.22167 -0.733487 -0.20892 -1.98757e-14 -6.26538e-14 -2.90851e-14 -80.8783 47.8136 -2.1985 11.0103 -4.65071 -19.8388 0.115595 -9.35536 1.3275 6.9413e-10 -2.53661e-10 -4.438e-10 1.19932e-09 -4.394e-10 -7.61434e-10 6.9413e-10 -2.53655e-10 -4.43783e-10 -7.73091 5.47488 -0.417314 6.94134e-10 -2.53656e-10 -4.43803e-10 -2.90554 0.965183 -0.102902 6.94124e-10 -2.53654e-10 -4.438e-10 -10.2786 0.731801 -0.0259123 6.94129e-10 -2.53656e-10 -4.43805e-10 -2.22167 -0.733487 0.20892 -2.03217e-16 0.0 -3.88251e-19 2.44973 -3.44923 9.24172 0.0150776 9.72876 0.199751 -8.21983 -20.0038 -22.385 2.03217e-16 0.0 3.88251e-19 5.0031 -1.6165 -1.7871 0.00588574 0.73617 -0.0901653 -0.228509 -2.6182 -5.0472
